<svg width="300" height="87" viewBox="0 0 300 87" fill="none" xmlns="http://www.w3.org/2000/svg"><g clip-path="url(#clip0_579:2111)" fill="#000"><path d="M152.51 12.924c5.792 6.833 8.688 16.694 8.688 29.582 0 12.888-2.896 22.749-8.688 29.583-5.793 6.82-13.683 10.234-23.671 10.24h-18.574V2.683h18.574c10.014 0 17.904 3.414 23.671 10.24zm-11.064 49.815c3.218-4.164 4.827-10.915 4.827-20.252s-1.609-16.088-4.827-20.252a15.314 15.314 0 00-5.64-4.702 15.45 15.45 0 00-7.199-1.553h-3.862v53.014h3.862a15.45 15.45 0 007.196-1.544 15.313 15.313 0 005.643-4.692v-.02zm54.187.584h-19.259l-4.586 19.006h-14.674L178.43 2.683h15.137l21.325 79.646h-14.674l-4.585-19.006zm-3.321-13.306l-6.314-26.057-6.304 26.057h12.618zm44.475.133v32.2h-14.481v-32.2l-18.69-47.449h14.674l11.237 30.723 11.237-30.723h14.674L236.787 50.15zm20.707 27.284c-4.131-3.87-6.706-9.219-7.723-16.046l12.155-6.591c.386 5 1.609 8.772 3.668 11.314a9.683 9.683 0 003.495 2.858c1.375.666 2.891 1 4.421.974a7.774 7.774 0 003.247-.576 7.714 7.714 0 002.709-1.867 9.15 9.15 0 002.298-6.543 11.314 11.314 0 00-2.896-7.28 38.29 38.29 0 00-9.113-7.396c-5.735-3.487-9.844-7.166-12.328-11.036a24.12 24.12 0 01-3.726-13.316c0-6.061 1.853-10.934 5.56-14.619 3.707-3.685 8.579-5.524 14.616-5.518a20.3 20.3 0 0112.675 3.985 20.84 20.84 0 017.279 11.381l-11.353 6.37a12.997 12.997 0 00-3.263-6.485 7.24 7.24 0 00-2.389-1.61 7.286 7.286 0 00-2.833-.555 6.33 6.33 0 00-2.622.441 6.31 6.31 0 00-2.205 1.475 7.17 7.17 0 00-1.834 5.116 9.006 9.006 0 002.529 6.207c1.68 1.859 4.898 4.343 9.654 7.453 5.889 3.832 10.149 7.718 12.781 11.659a24.45 24.45 0 013.958 14.054c0 6.59-2.082 11.898-6.246 15.921-4.164 4.024-9.634 6.035-16.411 6.035-6.603 0-11.971-1.935-16.103-5.805z"/><path d="M300 29.123c0 1.137-.34 2.248-.977 3.193a5.78 5.78 0 01-2.599 2.117 5.836 5.836 0 01-3.347.328 5.807 5.807 0 01-2.965-1.573 5.714 5.714 0 01-1.256-6.264 5.758 5.758 0 012.133-2.58 5.827 5.827 0 017.314.715A5.727 5.727 0 01300 29.123zm-1.545 0a4.16 4.16 0 00-.738-2.309 4.216 4.216 0 00-1.904-1.516 4.248 4.248 0 00-4.576.94 4.154 4.154 0 00-.895 4.552 4.185 4.185 0 001.55 1.87 4.24 4.24 0 005.342-.539 4.168 4.168 0 001.221-2.998zm-3.031.805l1.38 2.07h-1.554l-1.216-1.917h-.551v1.916h-1.303v-5.796h2.269a1.885 1.885 0 011.508.519 1.865 1.865 0 01.558 1.484c.028.359-.057.718-.244 1.027a1.744 1.744 0 01-.799.697h-.048zm-1.931-.958h.637c.637 0 .965-.307.965-.776 0-.47-.318-.776-.965-.776h-.589l-.048 1.552z"/></g><g clip-path="url(#clip1_579:2111)"><path d="M85.43 43.495c-.13 13.36-3.375 24.723-10.749 31.966-7.373 7.243-18.605 10.618-31.966 10.749-13.36-.13-24.723-3.375-31.966-10.75C3.506 68.088.131 56.857 0 43.496.13 30.135 3.375 18.773 10.75 11.53 18.122 4.286 29.353.91 42.714.779 56.076.91 67.438 4.156 74.681 11.53c7.243 7.373 10.619 18.605 10.75 31.966z" fill="#EA0029"/><path fill-rule="evenodd" clip-rule="evenodd" d="M29.485 33.83c-.15 3.366-.573 6.46-.934 9.615.673-.673 3.485-2.833 4.69-1.055.885 1.326-.36 3.556-.24 5.274 0 .452.864.07 1.055.352a4.258 4.258 0 01-.462 1.526c-.9.251-1.86.17-2.703-.23-.653-1.005-.13-3.235-.472-4.582-2.01.513-2.18 2.904-2.813 4.812a2.823 2.823 0 01-1.878-.12c-.161-5.023-.352-10.578-.352-15.36.462-1.095 3.305-.824 4.109-.231z" fill="#fff"/><path fill-rule="evenodd" clip-rule="evenodd" d="M18.344 41.104c1.065-.593 2.923-.623 2.933-2.01.01-1.386-2.009-1.556-3.405-1.526-3.014.07-5.455 1.718-5.978 4.34a5.497 5.497 0 004.571 6.69c2.913.352 4.722-1.005 6.922-2.11 2.22 1.236-.925 2.683-2.23 3.165-6.249 2.27-13.814-.563-13.14-7.856.452-4.752 4.52-7.434 9.04-7.745 3.467-.231 9.625 1.416 7.505 5.515-.874 1.667-4.862 3.918-6.218 1.527m40.103-4.33c.15 1.437-.342 3.235-.352 4.923.271.321 1.256-.08 1.527.23a2.007 2.007 0 01-.472 1.648h-1.166c-.442 1.155-.28 2.923-.582 4.22.12.3.904 0 1.005.23a5.145 5.145 0 01-.463 1.527c-.862.055-1.728.015-2.581-.12-.844-1.376-.432-6.158-.583-9.041-.05-.794-.251-1.176 0-1.758.382-.895 2.722-1.94 3.627-1.869m-14.497.824c1.718-.513 2.733.381 2.582 1.758-.22 1.949-4.018 2.09-3.867-.352a1.728 1.728 0 011.285-1.406z" fill="#fff"/><path fill-rule="evenodd" clip-rule="evenodd" d="M61.973 40.983c0-.1 0-.11.11-.12a5.024 5.024 0 011.759 1.175c3.747-1.436 5.022 3.727 3.405 6.098-1.306 1.899-4.681 2.01-6.329.352a5.103 5.103 0 011.055-7.505zm1.637 7.032c3.466.854 2.602-5.676.232-2.923-.242.211-.854.07-1.286.11-.392 1.397.14 2.592 1.054 2.813zm-25.927-5.977c.321.372-.09.774 0 1.286.642-.753 2.12-2.21 3.636-1.286 1.065.643.884 2.843.231 3.868a4.539 4.539 0 01-2.11 0c-.25-.211 0-.955-.23-1.176-2.09.302-1.859 2.914-2.462 4.692-.392.24-1.195.07-1.758.12-.442-2.18-.21-5.023-.351-7.504a4.71 4.71 0 013.013 0m8.368 0c-.1 2.01-.321 3.818-.582 5.626 0 .452.864.07 1.004.352a4.257 4.257 0 01-.472 1.526 3.874 3.874 0 01-2.702-.23c-.583-1.89-.382-5.164-.342-7.274a4.651 4.651 0 013.014 0m8.408.703a3.496 3.496 0 01-.582 2.341c-1.005-.08-3.014-1.095-3.758 0 1.095 1.005 3.225.422 3.758 1.758 1.115 2.833-3.858 3.496-6.028 2.23a2.25 2.25 0 01.472-1.286c1.155.252 3.074.864 4.019 0-.643-.653-1.698-.341-2.462-.472-1.225-.2-2.571-.753-2.813-1.878-.833-3.677 4.953-4.601 7.384-2.693m17.832-.582c-.05 1.908-.744 4.26-.352 5.856 2.19-.502 2.18-3.214 2.12-5.977.793-.271 2.551-.452 3.164.12-.19 1.88-.412 3.738-.593 5.626.1.292.814 0 .945.231a3.756 3.756 0 01-.352 1.527 2.28 2.28 0 01-2.933-1.175c-.643.402-.794 1.005-1.407 1.175-4.018 1.407-4.018-4.018-3.636-7.504.723-.321 2.49-.422 3.013.12" fill="#fff"/><path d="M34.99 55.811h-.714v-.633h1.397v4.5h-.714l.03-3.867zm4.762 2.341a1.316 1.316 0 01-.412.06 1.487 1.487 0 01-1.527-1.527 1.677 1.677 0 013.345 0 2.4 2.4 0 01-.472 1.206l-1.175 1.788h-.764l1.005-1.527zm.683-1.467a.903.903 0 00-.944-.944.954.954 0 10.944.944zm3.205-.874h-.724v-.633h1.437v4.5h-.714v-3.867zm2.832 1.627a2.352 2.352 0 112.34 2.331 2.29 2.29 0 01-2.34-2.33zm3.948 0a1.608 1.608 0 10-1.607 1.688 1.588 1.588 0 001.607-1.688z" fill="#fff"/></g><defs><clipPath id="clip0_579:2111"><path fill="#fff" transform="translate(110.265 1.773)" d="M0 0h189.735v81.457H0z"/></clipPath><clipPath id="clip1_579:2111"><path fill="#fff" transform="translate(0 .78)" d="M0 0h85.43v85.43H0z"/></clipPath></defs></svg>